<svg xmlns="http://www.w3.org/2000/svg" viewBox="0 0 100 100">
  <rect x="0" y="0" width="100" height="100" fill="#c4c4c4"/>
  <path d="M70.7,29.3c-2.3-2.3-5.4-3.5-8.7-3.5H38c-3.3,0-6.4,1.2-8.7,3.5l-14,14C14.2,47.9,14,51,14,54.2v18.5c0,3.2,0.2,6.3,3.3,9.4l14,14c2.3,2.3,5.4,3.5,8.7,3.5h23c3.3,0,6.4-1.2,8.7-3.5l14-14c3.1-3.1,3.3-6.2,3.3-9.4V54.2C85,51,84.8,47.9,81.7,44.8z M70.7,72.7c0,1.8-0.2,3.5-2,5.2l-14,14c-1.4,1.4-3.5,2-5.5,2H38c-2,0-4.1-0.7-5.5-2l-14-14c-1.8-1.8-2-3.5-2-5.2v-18.5c0-1.8,0.2-3.5,2-5.2l14-14c1.4-1.4,3.5-2,5.5-2h23c2,0,4.1,0.7,5.5,2l14,14c1.8,1.8,2,3.5,2,5.2V72.7z"/>
</svg>